<svg xmlns="http://www.w3.org/2000/svg" viewBox="0 0 24 24">
  <path d="M13.18 9.898c.566-1.05 2.074-1.051 2.64 0l5.326 9.891A1.5 1.5 0 0 1 19.826 22H9.174a1.5 1.5 0 0 1-1.32-2.21l5.326-9.892ZM14.4 18.5a1 1 0 0 0 0 2h.2a1 1 0 0 0 0-2h-.2ZM12.001 2c.285 0 .632.089.905.167.315.09.693.215 1.1.358.816.288 1.8.67 2.741 1.046a175.655 175.655 0 0 1 3.342 1.38c.097.04.173.074.226.096l.059.025.016.006.004.002v.001a1 1 0 0 1 .607.919v5a9.56 9.56 0 0 1-.662 3.473l-1.414-2.435C18.974 11.7 19 11.353 19 11V6.662l-.495-.208c-.669-.28-1.57-.653-2.501-1.025a73.307 73.307 0 0 0-2.665-1.017 19.966 19.966 0 0 0-.84-.277V7.86l-1 1.723V4.135a20.13 20.13 0 0 0-.838.277c-.778.275-1.732.644-2.665 1.017A173.856 173.856 0 0 0 5 6.662V11c0 2.216 1.017 4.168 2.358 5.713l-1.053 1.814C4.556 16.691 3 14.114 3 11V6a1 1 0 0 1 .606-.919h.001l.004-.003.016-.006.06-.025.225-.097a186.614 186.614 0 0 1 3.342-1.379 75.326 75.326 0 0 1 2.741-1.046c.407-.143.785-.268 1.1-.358.273-.078.62-.167.905-.167ZM14.5 12a1 1 0 0 0-1 1v3.5a1 1 0 0 0 2 0V13a1 1 0 0 0-1-1Z"/>
</svg>
