<svg xmlns="http://www.w3.org/2000/svg" viewBox="0 0 24 24">
  <path fill-rule="evenodd" d="M16.4336 2.43352c.3905-.39053 1.0236-.39053 1.4142 0l3 3c.1875.18753.2929.44189.2929.7071v7.99968c.6274.8355 1 1.8753 1 3.0003 0 2.7614-2.2386 5-5 5-1.1717 0-2.2492-.403-3.1016-1.0779-1.5593.2829-3.227-.1784-4.43246-1.3838-.79549-.7955-1.26736-1.7943-1.41448-2.8287l-1.41395-1.414-.21409-.2141-.05938-.2969-.22281-1.114-1.11405-.2228-.65372-.1308-.13074-.6537-.22281-1.114-1.11405-.2228-.80388-.1608V6.24384c0-.55229.44771-1 1-1h4.24264c.26521 0 .51957.10536.7071.29289l5.48938 5.48937.257-.3855-.6302-.94527-.3698-.55471.3698-.5547.6302-.9453-.6302-.9453-.4547-.68211.5797-.57969 3-3Zm-.8499 9.34528c.3921.2195.7609.4959 1.094.829.9456.9456 1.4333 2.1757 1.463 3.4148.3069.2747.5.6738.5 1.118 0 .7046-.4858 1.2957-1.1407 1.4567-.2184.3873-.4925.7518-.8223 1.0816-.1216.1216-.248.2357-.3784.3421.2669.0779.5493.1196.8414.1196 1.6568 0 3-1.3431 3-3 0-.7615-.2825-1.4546-.7498-1.9841-.1612-.1827-.2502-.418-.2502-.6617V6.55484l-1-1v6.08526c0 .2762-.2239.5-.5.5-.2762 0-.5-.2238-.5-.5V4.55484l-1.7132 1.7132.5452.81789.3698.55469-.3698.55471-.6302.94529.6302.94528.3698.5547-.3698.5547-.389.5835ZM5.20656 9.85945l-.96388-.19277V7.24384h.00014l5.01064 5.01066c.19526.1952.51184.1952.7071 0 .19524-.1953.19524-.5119 0-.7071L5.65703 7.24384H7.0711l5.6144 5.61436c.1723.1724.4016.2758.6449.291.7048.0439 1.3946.3343 1.9331.8728 1.1716 1.1716 1.1716 3.0711 0 4.2427-1.1716 1.1715-3.0711 1.1715-4.2426 0-.5385-.5385-.8289-1.2283-.8729-1.9332-.0151-.2432-.1186-.4725-.29092-.6448l-1.45056-1.4506-.29418-1.4709-.13074-.6537-.65372-.1307-1.11405-.2228-.22281-1.1141-.13074-.6537-.65372-.13075ZM12.7882 15.79c-.1952.1953-.1952.5118 0 .7071.1953.1953.5119.1953.7071 0 .1953-.1953.1953-.5118 0-.7071-.1952-.1953-.5118-.1953-.7071 0Zm-.7071 1.4142c-.5858-.5858-.5858-1.5355 0-2.1213.5858-.5858 1.5356-.5858 2.1213 0 .5858.5858.5858 1.5355 0 2.1213-.5857.5858-1.5355.5858-2.1213 0Z"/>
</svg>
