<svg xmlns="http://www.w3.org/2000/svg" viewBox="0 0 20 20">
  <path fill-rule="evenodd" d="M9.46967 1.96967c.29289-.29289.76773-.29289 1.06063 0l7.5 7.5c.2929.29289.2929.76773 0 1.06063-.2929.2929-.7677.2929-1.0606 0l-.3864-.3863v6.606H17.5c.4142 0 .75.3358.75.75s-.3358.75-.75.75h-15c-.41421 0-.75-.3358-.75-.75s.33579-.75.75-.75h.91667v-6.606l-.38634.3863c-.29289.2929-.76777.2929-1.06066 0s-.29289-.76774 0-1.06063l7.5-7.5ZM15.0833 16.75V8.64399L10 3.56066 4.91013 8.65053c.00431.03254.00654.06575.00654.09947v8H5.75V9.58333c0-.27614.22386-.5.5-.5h7.5c.2761 0 .5.22386.5.5V16.75h.8333ZM10 5.33333c-.9665 0-1.75.78351-1.75 1.75 0 .9665.7835 1.75 1.75 1.75s1.75-.7835 1.75-1.75c0-.96649-.7835-1.75-1.75-1.75Zm3.25 4.74997v1.5h-6.5v-1.5h6.5Zm-4-2.99997c0-.41421.33579-.75.75-.75.4142 0 .75.33579.75.75 0 .41422-.3358.75-.75.75-.41421 0-.75-.33578-.75-.75Zm4 6.99997v-1.5h-6.5v1.5h6.5Zm0 1V16.75h-6.5v-1.6667h6.5Z"/>
</svg>
