<svg xmlns="http://www.w3.org/2000/svg" viewBox="0 0 64 64">
  <path fill-rule="evenodd" d="M32 6.5C17.9167 6.5 6.5 17.9167 6.5 32S17.9167 57.5 32 57.5 57.5 46.0833 57.5 32 46.0833 6.5 32 6.5Zm-9.0607 16.4393c.5858-.5857 1.5356-.5857 2.1214 0L32 29.8787l6.9393-6.9394c.5858-.5857 1.5356-.5857 2.1214 0 .5857.5858.5857 1.5356 0 2.1214L34.1213 32l6.9394 6.9393c.5857.5858.5857 1.5356 0 2.1214-.5858.5857-1.5356.5857-2.1214 0L32 34.1213l-6.9393 6.9394c-.5858.5857-1.5356.5857-2.1214 0-.5857-.5858-.5857-1.5356 0-2.1214L29.8787 32l-6.9394-6.9393c-.5857-.5858-.5857-1.5356 0-2.1214Z"/>
</svg>
